<?xml version="1.0" encoding="utf-8"?>
<!-- Generator: Adobe Illustrator 27.2.0, SVG Export Plug-In . SVG Version: 6.00 Build 0)  -->
<svg version="1.1" id="Ebene_1" xmlns="http://www.w3.org/2000/svg" xmlns:xlink="http://www.w3.org/1999/xlink" x="0px" y="0px"
	 viewBox="0 0 587.1 146.9" style="enable-background:new 0 0 587.1 146.9;" xml:space="preserve">
<style type="text/css">
	.st0{fill:#222222;}
</style>
<g>
	<path class="st0" d="M142.5,44.6l-34.1,51.9h14.4l6.6-10.6h20.4l0.5,10.6h15l-5.7-51.9H142.5z M135.4,76.5L148,55.7l1.1,20.8H135.4
		z"/>
	<path class="st0" d="M224.9,47.5c-1.6-1-3.6-1.8-6-2.2s-6.4-0.7-12.1-0.7h-14.7l-14.9,51.9H192l5.3-18.3h8.6
		c4.8,0,8.7-0.5,11.7-1.4s5.6-2.4,7.6-4.5c1.7-1.7,3.1-3.8,4.1-6.2s1.5-4.9,1.5-7.3c0-2.4-0.5-4.6-1.5-6.5S226.8,48.7,224.9,47.5z
		 M213.3,66.1c-2,1.5-4.9,2.3-8.7,2.3H200l4.2-14.3h4.6c2.6,0,4.6,0.4,5.7,1.3s1.8,2.2,1.8,4C216.3,62.3,215.3,64.6,213.3,66.1z"/>
	<polygon class="st0" points="237.6,96.4 276.8,96.4 279.6,86.6 255.2,86.6 258.9,73.7 281.1,73.7 283.8,64.1 261.6,64.1 
		264.4,54.5 288,54.5 290.8,44.6 252.5,44.6 	"/>
	<polygon class="st0" points="584.3,54.5 587.1,44.6 548.8,44.6 533.9,96.4 573.1,96.4 575.9,86.6 551.5,86.6 555.2,73.7 
		577.4,73.7 580.1,64.1 557.9,64.1 560.7,54.5 	"/>
	<path class="st0" d="M345,47.8c-2.8-2.1-6.8-3.2-11.8-3.2h-22.6l-14.9,51.9h14.4l5.8-20.3h4.8c2.3,0,3.9,0.4,4.8,1.1s1.3,2,1.3,3.7
		c0,0.8-0.1,2.4-0.4,4.7s-0.4,4.2-0.4,5.6c0,0.8,0,1.5,0.1,2.4s0.1,1.8,0.3,2.8H341c-0.2-0.9-0.3-1.8-0.4-2.7s-0.1-1.6-0.1-2.3
		c0-2.1,0.1-4.7,0.3-7.8s0.3-5,0.3-6c0-2.1-0.5-3.7-1.5-4.7s-2.7-1.9-5.2-2.3l0.1-0.4c4.8-0.5,8.4-2,11-4.3s3.8-5.5,3.8-9.3
		C349.2,52.8,347.8,49.9,345,47.8z M332.4,64.9c-2,1.4-4.9,2.1-8.8,2.1h-5l3.7-13.1h5.5c2.8,0,4.7,0.4,5.9,1.1s1.7,2,1.7,3.8
		C335.3,61.4,334.3,63.5,332.4,64.9z"/>
	<path class="st0" d="M523.5,47.8c-2.8-2.1-6.8-3.2-11.8-3.2h-22.6l-14.9,51.9h14.4l5.8-20.3h4.8c2.3,0,3.9,0.4,4.8,1.1
		s1.3,2,1.3,3.7c0,0.8-0.1,2.4-0.4,4.7s-0.4,4.2-0.4,5.6c0,0.8,0,1.5,0.1,2.4s0.1,1.8,0.3,2.8h14.6c-0.2-0.9-0.3-1.8-0.4-2.7
		s-0.1-1.6-0.1-2.3c0-2.1,0.1-4.7,0.3-7.8s0.3-5,0.3-6c0-2.1-0.5-3.7-1.5-4.7s-2.7-1.9-5.2-2.3l0.1-0.4c4.8-0.5,8.4-2,11-4.3
		s3.8-5.5,3.8-9.3C527.8,52.8,526.4,49.9,523.5,47.8z M510.9,64.9c-2,1.4-4.9,2.1-8.8,2.1h-5l3.7-13.1h5.5c2.8,0,4.7,0.4,5.9,1.1
		c1.1,0.8,1.7,2,1.7,3.8C513.9,61.4,512.9,63.5,510.9,64.9z"/>
	<polygon class="st0" points="360.9,54.6 376.5,54.6 364.5,96.4 379.2,96.4 391.3,54.6 405.5,54.6 408.4,44.6 363.8,44.6 	"/>
	<path class="st0" d="M446.6,76.7c-1,3.6-2.5,6.3-4.3,7.9s-4.4,2.5-7.4,2.5c-2.7,0-4.9-0.6-6.4-1.9s-2.3-3-2.3-5.3
		c0-0.6,0.1-1.3,0.2-2.1s0.3-1.6,0.6-2.6l8.8-30.7H421l-8.3,29c-0.4,1.1-0.6,2.3-0.8,3.4s-0.2,2.2-0.2,3.3c0,5.6,1.9,9.8,5.6,12.7
		s9.3,4.3,16.6,4.3c7.4,0,13.2-1.4,17.2-4.1s6.9-7.3,8.7-13.6l10-35h-14L446.6,76.7z"/>
</g>
<g>
	<path class="st0" d="M5.4,45.8l68.7-13.7L39,8.6C23.6,16.8,11.8,30.1,5.4,45.8z"/>
	<path class="st0" d="M107.9,138.3c15.3-8.2,27.1-21.5,33.5-37.2l-68.7,13.7L107.9,138.3z"/>
	<path class="st0" d="M94.9,3.2C83.7-0.2,71.4-1,59.1,1.4c-5,1-9.7,2.5-14.3,4.4l58.3,39L94.9,3.2z"/>
	<path class="st0" d="M52,143.6c11.2,3.4,23.5,4.2,35.8,1.8c5-1,9.7-2.5,14.3-4.4l-58.3-39L52,143.6z"/>
	<path class="st0" d="M1.4,87.8c1,5,2.5,9.7,4.4,14.3l39-58.3L3.2,52C-0.2,63.2-1,75.4,1.4,87.8z"/>
	<path class="st0" d="M138.3,39c-8.2-15.3-21.5-27.1-37.2-33.5l13.7,68.7L138.3,39z"/>
	<path class="st0" d="M45.8,141.4L32.1,72.7L8.6,107.9C16.8,123.3,30.1,135,45.8,141.4z"/>
</g>
</svg>
