<?xml version="1.0" encoding="utf-8"?>
<!-- Generator: Adobe Illustrator 27.2.0, SVG Export Plug-In . SVG Version: 6.00 Build 0)  -->
<svg version="1.1" id="Door" xmlns="http://www.w3.org/2000/svg" xmlns:xlink="http://www.w3.org/1999/xlink" x="0px" y="0px"
	 viewBox="0 0 128 128" style="enable-background:new 0 0 128 128;" xml:space="preserve">
<style type="text/css">
	.st0{fill:#AAAAAA;}
	.st1{fill:#11293C;}
	.st2{clip-path:url(#SVGID_00000057843396115883419140000017895501836746287803_);fill:#69D8FC;}
	.st3{opacity:0.1;}
	.st4{fill:#FFFFFF;}
</style>
<polygon class="st0" points="64.5,22.5 48.5,24.5 26.5,34.5 12.5,50.5 4.5,69.5 2.5,85.5 5.5,103.5 10.5,114.5 19.5,126.5 
	108.5,125.5 119.5,109.5 126.5,86.5 123.5,68.5 117.5,52.5 101.5,35.5 85.5,26.5 "/>
<polygon class="st1" points="64,40 108,40 122,60 125.9,83.1 122.3,101.6 111,125 64,126.2 "/>
<g>
	<defs>
		<polygon id="SVGID_1_" points="64,40 108,40 122,60 125.9,83.1 122.3,101.6 111,125 64,126.2 		"/>
	</defs>
	<clipPath id="SVGID_00000030452480763889656410000001266831265442970024_">
		<use xlink:href="#SVGID_1_"  style="overflow:visible;"/>
	</clipPath>
	<path style="clip-path:url(#SVGID_00000030452480763889656410000001266831265442970024_);fill:#69D8FC;" d="M97.6,57.8
		c-3.8-0.6-6.5-4.3-5.8-8.2c0.6-3.9,4.3-6.5,8.1-5.8l0,0c3.9,0.6,6.5,4.3,5.9,8.1C105.2,55.7,101.5,58.4,97.6,57.8 M77.1,104.2
		l-23.7-8.9l2.6-6.8l16.5,6.3l10.2-27.4l-6.7,1.4l-1.9,11.8l-7-1.1l2.7-16.3l19.4-4.7l2.8,0.1c2.5,0.4,4.3,2.1,5.3,4.5l2.6,6.2
		c2,5.5,7,9.7,13.6,10.8l-1.1,6.9c-7.7-1.3-14.1-5.8-17.8-11.8L91,85.4l6.2,8.2l-4.3,26.3l-7-1.1l3.4-21l-6.2-8.2L77.1,104.2"/>
</g>
<g class="st3">
	<path d="M40.8,125h46.5c14.8-8.2,24.8-23.9,24.8-42c0-26.5-21.5-48-48-48S16,56.5,16,83C16,101.1,26,116.8,40.8,125z"/>
</g>
<g>
	<path class="st4" d="M17.7,124.4C17.7,124.4,17.7,124.4,17.7,124.4z M17.7,124.4C7.9,113.2,2.5,99,2.5,84.1
		C2.5,98.9,7.9,113.2,17.7,124.4z M111.5,123c9-11,14-24.7,14-39C125.5,98.4,120.5,112.1,111.5,123z M62.6,97.4
		c0.5,0,0.9,0.1,1.4,0.1s0.9,0,1.4-0.1L64,97.6L62.6,97.4z M57.9,96.1c-4.5-2.2-7.4-6.8-7.4-12C50.5,89.3,53.5,93.8,57.9,96.1z
		 M70.1,96.1c4.4-2.2,7.4-6.8,7.4-12C77.5,89.3,74.5,93.8,70.1,96.1z M2.5,84.1C2.5,84.1,2.5,84.1,2.5,84.1z M125.5,84.1
		C125.5,84.1,125.5,84.1,125.5,84.1z M2.5,84C2.5,84,2.5,84,2.5,84z M125.5,84C125.5,84,125.5,84,125.5,84z M50.5,84
		C50.5,84,50.5,84,50.5,84z M77.5,84C77.5,84,77.5,84,77.5,84z M50.5,84C50.5,84,50.5,84,50.5,84z M77.5,84C77.5,84,77.5,84,77.5,84
		z M50.5,84C50.5,84,50.5,84,50.5,84z M77.5,84C77.5,84,77.5,84,77.5,84z M77.5,84C77.5,84,77.5,84,77.5,84z M50.5,84
		C50.5,84,50.5,84,50.5,84z M50.5,84C50.5,84,50.5,84,50.5,84z M77.5,84C77.5,84,77.5,84,77.5,84z M50.5,84C50.5,84,50.5,84,50.5,84
		z M77.5,84C77.5,84,77.5,84,77.5,84z M125.5,84C125.5,84,125.5,84,125.5,84z M2.5,84C2.5,84,2.5,84,2.5,84z M50.5,84
		c0-5.2,3-9.8,7.4-12C53.5,74.2,50.5,78.7,50.5,84z M77.5,84c0-5.2-3-9.8-7.4-12C74.5,74.2,77.5,78.7,77.5,84z M65.4,70.6
		c-0.5,0-0.9-0.1-1.4-0.1s-0.9,0-1.4,0.1l1.4-0.2L65.4,70.6z M52.4,23.6c3.3-0.6,6.7-1,10.2-1.1l-1.2,0C58.3,22.7,55.3,23,52.4,23.6
		z M75.6,23.6c-2.9-0.6-5.9-0.9-9-1l-1.2,0C68.9,22.6,72.3,23,75.6,23.6z"/>
	<path d="M64,20C28.7,20,0,48.7,0,84c0,17,6.7,32.5,17.5,44h92.9c10.9-11.5,17.5-27,17.5-44C128,48.7,99.3,20,64,20L64,20z
		 M66.5,123V99.8C74.1,98.6,80,92,80,84s-5.9-14.6-13.5-15.8V25.1C97.9,26.4,123,52.3,123,84c0,14.4-5.2,28.2-14.8,39H66.5L66.5,123
		z M19.8,123C10.2,112.2,5,98.4,5,84c0-31.7,25.1-57.6,56.5-58.9v43.2C53.9,69.4,48,76,48,84s5.9,14.6,13.5,15.8V123H19.8L19.8,123z
		 M64,95c-6.1,0-11-4.9-11-11s4.9-11,11-11s11,4.9,11,11S70.1,95,64,95L64,95z"/>
</g>
</svg>
